<mxfile host="app.diagrams.net" modified="2023-12-07T18:59:58.337Z" agent="Mozilla/5.0 (Macintosh; Intel Mac OS X 10.15; rv:120.0) Gecko/20100101 Firefox/120.0" version="21.6.9" etag="8gBqxfyV02Ka2QLdumb9" type="github">
  <diagram name="Page-1" id="bhgz3kMbGMidS3w6T2q6">
    <mxGraphModel>
      <root>
        <mxCell id="0" />
        <mxCell id="1" parent="0" />
      </root>
    </mxGraphModel>
  </diagram>
</mxfile>
